<mxfile host="app.diagrams.net" modified="2023-05-23T08:10:52.585Z" agent="Mozilla/5.0 (Windows NT 10.0; Win64; x64) AppleWebKit/537.36 (KHTML, like Gecko) Chrome/112.0.0.0 Safari/537.36 OPR/98.0.0.0" etag="t09YFL7n9GnCghK3IQOG" version="21.3.2" type="device">
  <diagram name="PÃ¡gina-1" id="khFCSXVgdIk72ghtromz">
    <mxGraphModel dx="1250" dy="550" grid="1" gridSize="10" guides="1" tooltips="1" connect="1" arrows="1" fold="1" page="1" pageScale="1" pageWidth="827" pageHeight="1169" math="0" shadow="0">
      <root>
        <mxCell id="0" />
        <mxCell id="1" parent="0" />
        <mxCell id="zgHCVV2ZWSkMcQyDUA9j-6" style="edgeStyle=orthogonalEdgeStyle;rounded=0;orthogonalLoop=1;jettySize=auto;html=1;exitX=1;exitY=0;exitDx=0;exitDy=0;entryX=0;entryY=0;entryDx=0;entryDy=0;" edge="1" parent="1" source="zgHCVV2ZWSkMcQyDUA9j-1" target="zgHCVV2ZWSkMcQyDUA9j-2">
          <mxGeometry relative="1" as="geometry" />
        </mxCell>
        <mxCell id="zgHCVV2ZWSkMcQyDUA9j-1" value="CLIENTE" style="ellipse;whiteSpace=wrap;html=1;" vertex="1" parent="1">
          <mxGeometry x="50" y="150" width="90" height="50" as="geometry" />
        </mxCell>
        <mxCell id="zgHCVV2ZWSkMcQyDUA9j-7" style="edgeStyle=orthogonalEdgeStyle;rounded=0;orthogonalLoop=1;jettySize=auto;html=1;exitX=0;exitY=1;exitDx=0;exitDy=0;entryX=1;entryY=1;entryDx=0;entryDy=0;" edge="1" parent="1" source="zgHCVV2ZWSkMcQyDUA9j-2" target="zgHCVV2ZWSkMcQyDUA9j-1">
          <mxGeometry relative="1" as="geometry" />
        </mxCell>
        <mxCell id="zgHCVV2ZWSkMcQyDUA9j-8" style="edgeStyle=orthogonalEdgeStyle;rounded=0;orthogonalLoop=1;jettySize=auto;html=1;exitX=1;exitY=0.5;exitDx=0;exitDy=0;entryX=0;entryY=0.5;entryDx=0;entryDy=0;" edge="1" parent="1" source="zgHCVV2ZWSkMcQyDUA9j-2" target="zgHCVV2ZWSkMcQyDUA9j-3">
          <mxGeometry relative="1" as="geometry">
            <Array as="points">
              <mxPoint x="480" y="175" />
              <mxPoint x="480" y="115" />
            </Array>
          </mxGeometry>
        </mxCell>
        <mxCell id="zgHCVV2ZWSkMcQyDUA9j-9" style="edgeStyle=orthogonalEdgeStyle;rounded=0;orthogonalLoop=1;jettySize=auto;html=1;exitX=1;exitY=0.5;exitDx=0;exitDy=0;entryX=0;entryY=0.5;entryDx=0;entryDy=0;" edge="1" parent="1" source="zgHCVV2ZWSkMcQyDUA9j-2" target="zgHCVV2ZWSkMcQyDUA9j-4">
          <mxGeometry relative="1" as="geometry" />
        </mxCell>
        <mxCell id="zgHCVV2ZWSkMcQyDUA9j-10" style="edgeStyle=orthogonalEdgeStyle;rounded=0;orthogonalLoop=1;jettySize=auto;html=1;exitX=1;exitY=0.5;exitDx=0;exitDy=0;entryX=0;entryY=0.5;entryDx=0;entryDy=0;" edge="1" parent="1" source="zgHCVV2ZWSkMcQyDUA9j-2" target="zgHCVV2ZWSkMcQyDUA9j-5">
          <mxGeometry relative="1" as="geometry">
            <Array as="points">
              <mxPoint x="480" y="175" />
              <mxPoint x="480" y="245" />
            </Array>
          </mxGeometry>
        </mxCell>
        <mxCell id="zgHCVV2ZWSkMcQyDUA9j-2" value="SERVER&lt;br&gt;GESTION" style="ellipse;whiteSpace=wrap;html=1;" vertex="1" parent="1">
          <mxGeometry x="230" y="150" width="90" height="50" as="geometry" />
        </mxCell>
        <mxCell id="zgHCVV2ZWSkMcQyDUA9j-17" style="edgeStyle=orthogonalEdgeStyle;rounded=0;orthogonalLoop=1;jettySize=auto;html=1;exitX=1;exitY=0.5;exitDx=0;exitDy=0;entryX=0.5;entryY=1;entryDx=0;entryDy=0;" edge="1" parent="1" source="zgHCVV2ZWSkMcQyDUA9j-3" target="zgHCVV2ZWSkMcQyDUA9j-2">
          <mxGeometry relative="1" as="geometry">
            <Array as="points">
              <mxPoint x="650" y="115" />
              <mxPoint x="650" y="280" />
              <mxPoint x="275" y="280" />
            </Array>
          </mxGeometry>
        </mxCell>
        <mxCell id="zgHCVV2ZWSkMcQyDUA9j-3" value="SUBCONTRATA2" style="ellipse;whiteSpace=wrap;html=1;" vertex="1" parent="1">
          <mxGeometry x="520" y="90" width="110" height="50" as="geometry" />
        </mxCell>
        <mxCell id="zgHCVV2ZWSkMcQyDUA9j-18" style="edgeStyle=orthogonalEdgeStyle;rounded=0;orthogonalLoop=1;jettySize=auto;html=1;exitX=1;exitY=0.5;exitDx=0;exitDy=0;entryX=0.5;entryY=1;entryDx=0;entryDy=0;" edge="1" parent="1" source="zgHCVV2ZWSkMcQyDUA9j-4" target="zgHCVV2ZWSkMcQyDUA9j-2">
          <mxGeometry relative="1" as="geometry">
            <Array as="points">
              <mxPoint x="650" y="175" />
              <mxPoint x="650" y="280" />
              <mxPoint x="275" y="280" />
            </Array>
          </mxGeometry>
        </mxCell>
        <mxCell id="zgHCVV2ZWSkMcQyDUA9j-4" value="SUBCONTRATA2" style="ellipse;whiteSpace=wrap;html=1;" vertex="1" parent="1">
          <mxGeometry x="520" y="150" width="110" height="50" as="geometry" />
        </mxCell>
        <mxCell id="zgHCVV2ZWSkMcQyDUA9j-20" style="edgeStyle=orthogonalEdgeStyle;rounded=0;orthogonalLoop=1;jettySize=auto;html=1;exitX=1;exitY=0.5;exitDx=0;exitDy=0;entryX=0.5;entryY=1;entryDx=0;entryDy=0;" edge="1" parent="1" source="zgHCVV2ZWSkMcQyDUA9j-5" target="zgHCVV2ZWSkMcQyDUA9j-2">
          <mxGeometry relative="1" as="geometry">
            <Array as="points">
              <mxPoint x="650" y="245" />
              <mxPoint x="650" y="280" />
              <mxPoint x="275" y="280" />
            </Array>
          </mxGeometry>
        </mxCell>
        <mxCell id="zgHCVV2ZWSkMcQyDUA9j-5" value="SUBCONTRATA3" style="ellipse;whiteSpace=wrap;html=1;" vertex="1" parent="1">
          <mxGeometry x="520" y="220" width="110" height="50" as="geometry" />
        </mxCell>
        <mxCell id="zgHCVV2ZWSkMcQyDUA9j-12" value="&lt;font style=&quot;font-size: 10px;&quot;&gt;Hace el pedido&lt;/font&gt;" style="text;html=1;strokeColor=none;fillColor=none;align=center;verticalAlign=middle;whiteSpace=wrap;rounded=0;" vertex="1" parent="1">
          <mxGeometry x="140" y="130" width="80" height="30" as="geometry" />
        </mxCell>
        <mxCell id="zgHCVV2ZWSkMcQyDUA9j-13" value="&lt;font style=&quot;font-size: 10px;&quot;&gt;selecciona servidor a subcontratar. Y le manda el pedido.&lt;/font&gt;" style="text;html=1;strokeColor=none;fillColor=none;align=center;verticalAlign=middle;whiteSpace=wrap;rounded=0;" vertex="1" parent="1">
          <mxGeometry x="320" y="145" width="156" as="geometry" />
        </mxCell>
        <mxCell id="zgHCVV2ZWSkMcQyDUA9j-14" value="&lt;font style=&quot;font-size: 10px;&quot;&gt;En estos servidores se realizan los repartos&lt;/font&gt;" style="text;html=1;strokeColor=none;fillColor=none;align=center;verticalAlign=middle;whiteSpace=wrap;rounded=0;" vertex="1" parent="1">
          <mxGeometry x="510" y="30" width="130" height="50" as="geometry" />
        </mxCell>
        <mxCell id="zgHCVV2ZWSkMcQyDUA9j-15" value="&lt;font style=&quot;font-size: 10px;&quot;&gt;Se devuelve el estado del reparto.&amp;nbsp; Y se hace la facturacion. En el server Gestion.&lt;br&gt;&lt;/font&gt;" style="text;html=1;strokeColor=none;fillColor=none;align=center;verticalAlign=middle;whiteSpace=wrap;rounded=0;" vertex="1" parent="1">
          <mxGeometry x="330" y="280" width="250" height="40" as="geometry" />
        </mxCell>
        <mxCell id="zgHCVV2ZWSkMcQyDUA9j-21" value="&lt;font style=&quot;font-size: 10px;&quot;&gt;Recibe el estado del pedido.&lt;/font&gt;" style="text;html=1;strokeColor=none;fillColor=none;align=center;verticalAlign=middle;whiteSpace=wrap;rounded=0;" vertex="1" parent="1">
          <mxGeometry x="125" y="200" width="110" height="30" as="geometry" />
        </mxCell>
      </root>
    </mxGraphModel>
  </diagram>
</mxfile>
